<?xml version="1.0" encoding="utf-8"?>
<!-- Uploaded to: SVG Repo, www.svgrepo.com, Generator: SVG Repo Mixer Tools -->
<svg width="800px" height="800px" viewBox="-1 0 20 20" xmlns="http://www.w3.org/2000/svg">
  <g id="user-6" transform="translate(-3 -2)">
    <path id="secondary" fill="#2ca9bc" d="M11,13h2a7,7,0,0,1,7,7h0a1,1,0,0,1-1,1H5a1,1,0,0,1-1-1H4a7,7,0,0,1,7-7Z"/>
    <path id="primary" d="M20,20h0a1,1,0,0,1-1,1H5a1,1,0,0,1-1-1H4a7,7,0,0,1,7-7h2A7,7,0,0,1,20,20ZM12,3a5,5,0,1,0,5,5A5,5,0,0,0,12,3Z" fill="none" stroke="#000000" stroke-linecap="round" stroke-linejoin="round" stroke-width="2"/>
  </g>
</svg>